<svg xmlns="http://www.w3.org/2000/svg" viewBox="0 0 382.9 382.9"><defs><style>.cls-1{fill:#494949;}.cls-2{fill:#c5041f;}</style></defs><g id="Layer_2" data-name="Layer 2"><g id="Layer_1-2" data-name="Layer 1"><polygon class="cls-1" points="111.57 123.96 111.57 297.54 157.02 319.55 157.8 295.53 129.47 283.74 128.69 128.28 111.57 123.96"/><polygon class="cls-2" points="161.15 158.76 161.93 136.23 133.6 129.65 133.6 151.92 161.15 158.76"/><path class="cls-1" d="M166.94,135.41c1.51-40.75,21.13-67.92,62.63-67.92,34.6,0,62.64,30.41,62.64,67.92s-28,67.92-62.64,67.92H207L192.6,319.55H161.35S166.07,158.82,166.94,135.41Z"/><path d="M332.49,319.55l-81.7-106.18a17.31,17.31,0,0,0-13.73-6.77h-27.7L297.06,320c-28,26.54-58,37.45-98.39,38.72-95.59,3-175.18-72-174.56-167.63a166.66,166.66,0,0,1,333.31,1.09l23.95,23.64h0a191.06,191.06,0,0,0,1.52-26.34C381.82,85.4,296.71.65,192.67,0,86.32-.66-.09,85.4,0,191.62.09,297.22,86.84,383.43,192.44,382.9c59.43-.3,103.69-24.79,140.88-62Z"/></g></g></svg>