<?xml version="1.0" encoding="utf-8"?>
<!-- Generator: Adobe Illustrator 24.2.3, SVG Export Plug-In . SVG Version: 6.00 Build 0)  -->
<svg version="1.1" id="Layer_1" xmlns="http://www.w3.org/2000/svg" xmlns:xlink="http://www.w3.org/1999/xlink" x="0px" y="0px"
	 viewBox="0 0 367 388" style="enable-background:new 0 0 367 388;" xml:space="preserve">
<style type="text/css">
	.st0{fill:#8C8C8C;}
	.st1{fill:#C5041F;}
	.st2{fill:#FFFFFF;}
</style>
<polygon class="st0" points="107.2,129.3 107.2,296.3 150.9,317.5 151.6,294.4 124.4,283 123.6,133.5 "/>
<polygon class="st1" points="154.9,162.8 155.6,141.1 128.4,134.8 128.4,156.2 "/>
<path class="st0" d="M160.4,140.4c1.5-39.2,20.3-65.3,60.3-65.3c33.3,0,60.3,29.3,60.3,65.3s-27,65.3-60.3,65.3
	c-7.7,0-13.8,0-21.8,0l-13.8,111.8H155C155,317.5,159.6,162.9,160.4,140.4z"/>
<path class="st2" d="M319.7,317.5l-78.6-102.1c-3.2-4.1-8-6.5-13.2-6.5h-26.6l84.4,109c-26.9,25.5-55.8,36-94.6,37.2
	C99,358,22.4,285.9,23,193.9c0.6-88.1,72.1-159.3,160.3-159.3c88.5,0,160.3,71.8,160.3,160.3l23,22.7l0,0c1.1-8.3,1.6-16.7,1.5-25.3
	c-1-100.1-82.9-181.6-183-182.2C82.9,9.5-0.2,92.3-0.2,194.4c0.1,101.6,83.5,184.5,185.1,184c57.2-0.3,99.7-23.8,135.5-59.6
	L319.7,317.5z"/>
</svg>
