<?xml version="1.0" encoding="utf-8"?>
<!-- Generator: Adobe Illustrator 24.2.3, SVG Export Plug-In . SVG Version: 6.00 Build 0)  -->
<svg version="1.1" id="_x32_" xmlns="http://www.w3.org/2000/svg" xmlns:xlink="http://www.w3.org/1999/xlink" x="0px" y="0px"
	 viewBox="0 0 1008.76 1008.76" style="enable-background:new 0 0 1008.76 1008.76;" xml:space="preserve">
<style type="text/css">
	.st0{fill:#FFFFFF;}
</style>
<g>
	<polygon class="st0" points="293.92,326.58 293.92,783.86 413.66,841.84 415.72,778.58 341.09,747.5 339.04,337.94 	"/>
</g>
<g>
	<path class="st0" d="M439.8,356.74c3.98-107.36,55.67-178.93,165.02-178.93c91.14,0,165.02,80.11,165.02,178.93
		s-73.88,178.93-165.02,178.93c-21,0-37.77,0-59.57,0l-37.85,306.17h-82.32C425.07,841.84,437.51,418.42,439.8,356.74z"/>
</g>
<g>
	<path class="st0" d="M875.94,841.84L660.72,562.11c-8.64-11.23-22.01-17.81-36.18-17.81h-72.98L782.6,842.94
		c-73.75,69.91-152.74,98.65-259.22,101.98C271.57,952.82,61.9,755.25,63.51,503.32C65.06,262.15,261.04,67.13,502.57,67.13
		c242.49,0,439.06,196.58,439.06,439.06l63.09,62.29l0-0.02c2.88-22.7,4.25-45.86,4-69.39C1005.91,224.97,781.68,1.71,507.58,0.01
		C227.4-1.73-0.24,224.99,0,504.82c0.24,278.2,228.77,505.33,506.97,503.93c156.57-0.79,273.19-65.31,371.16-163.28L875.94,841.84z"
		/>
</g>
</svg>
